<svg width="155" height="40" viewBox="0 0 155 40" fill="none" xmlns="http://www.w3.org/2000/svg">
<g clip-path="url(#clip0_6_70)">
<path d="M19.5652 14.5895C19.3131 13.3881 18.6248 12.3228 17.6332 11.5993C16.6415 10.8759 15.4169 10.5456 14.196 10.6722C12.975 10.7989 11.8444 11.3736 11.0224 12.2853C10.2004 13.197 9.74551 14.3809 9.74551 15.6084C9.74551 16.8359 10.2004 18.0199 11.0224 18.9316C11.8444 19.8432 12.975 20.4179 14.196 20.5446C15.4169 20.6713 16.6415 20.341 17.6332 19.6175C18.6248 18.894 19.3131 17.8287 19.5652 16.6274H27.3531C27.1345 19.4111 26.0032 22.045 24.1348 24.1201C22.2663 26.1952 19.7652 27.5956 17.0195 28.104C14.2739 28.6125 11.4371 28.2004 8.94954 26.9319C6.46196 25.6633 4.46262 23.6092 3.26175 21.0883C2.06089 18.5673 1.72566 15.7205 2.30807 12.9895C2.89049 10.2586 4.35799 7.79623 6.48285 5.98453C8.60771 4.17284 11.2711 3.11312 14.0598 2.96982C16.8485 2.82652 19.6065 3.60764 21.9059 5.19198C22.1347 4.53031 22.5778 3.9639 23.1649 3.58247C20.4688 1.68903 17.215 0.755486 13.9251 0.931413C10.6352 1.10734 7.49958 2.38256 5.0207 4.55272C2.54182 6.72289 0.863197 9.66237 0.253811 12.9001C-0.355575 16.1379 0.139557 19.4865 1.65987 22.4094C3.18017 25.3322 5.63765 27.6601 8.63849 29.0201C11.6393 30.38 15.0098 30.6932 18.2099 29.9095C21.4099 29.1258 24.2543 27.2906 26.2871 24.6979C28.32 22.1052 29.4236 18.9052 29.4213 15.6106V14.5895H19.5652ZM14.7106 18.5311C14.1322 18.5311 13.5667 18.3595 13.0857 18.0382C12.6047 17.7168 12.2298 17.26 12.0084 16.7255C11.7871 16.1911 11.7292 15.603 11.842 15.0357C11.9549 14.4683 12.2334 13.9471 12.6425 13.5381C13.0515 13.1291 13.5727 12.8505 14.14 12.7376C14.7074 12.6248 15.2955 12.6827 15.8299 12.9041C16.3644 13.1255 16.8212 13.5003 17.1425 13.9813C17.4639 14.4623 17.6355 15.0278 17.6355 15.6063C17.6355 16.382 17.3273 17.1259 16.7788 17.6744C16.2303 18.2229 15.4863 18.5311 14.7106 18.5311Z" fill="white"/>
<path d="M24.8697 10.3537C24.0473 10.3537 23.2434 10.1098 22.5596 9.65295C21.8759 9.19608 21.3429 8.5467 21.0282 7.78694C20.7135 7.02717 20.6312 6.19115 20.7916 5.3846C20.9521 4.57804 21.3481 3.83717 21.9296 3.25567C22.5111 2.67418 23.2519 2.27817 24.0585 2.11774C24.865 1.9573 25.7011 2.03964 26.4608 2.35435C27.2206 2.66905 27.87 3.20198 28.3268 3.88575C28.7837 4.56952 29.0276 5.37341 29.0276 6.19577C29.0264 7.29817 28.588 8.35508 27.8085 9.1346C27.029 9.91411 25.9721 10.3525 24.8697 10.3537V10.3537ZM24.8697 4.0757C24.4504 4.0757 24.0405 4.20004 23.6918 4.433C23.3432 4.66595 23.0714 4.99706 22.911 5.38445C22.7505 5.77184 22.7085 6.19812 22.7903 6.60937C22.8721 7.02062 23.0741 7.39838 23.3705 7.69488C23.667 7.99138 24.0448 8.19329 24.4561 8.2751C24.8673 8.3569 25.2936 8.31491 25.681 8.15445C26.0684 7.99399 26.3995 7.72225 26.6324 7.37361C26.8654 7.02497 26.9897 6.61508 26.9897 6.19577C26.9886 5.63384 26.7649 5.09526 26.3675 4.69792C25.9702 4.30058 25.4316 4.07685 24.8697 4.0757Z" fill="#00FFA7"/>
<path d="M147.634 7.42454V25.4537H145.346V22.3558C144.459 23.4694 143.343 24.3798 142.075 25.0254C140.347 25.8514 138.404 26.114 136.519 25.7763C134.634 25.4387 132.903 24.5177 131.569 23.1433C130.688 22.2572 129.993 21.2024 129.528 20.042C129.062 18.8816 128.836 17.6394 128.861 16.3894C128.841 15.1514 129.074 13.9224 129.544 12.7769C130.014 11.6315 130.712 10.5936 131.595 9.72632C132.442 8.83631 133.464 8.13092 134.597 7.65442C135.729 7.17791 136.948 6.94056 138.176 6.95726C139.573 6.9368 140.954 7.26075 142.196 7.90047C143.456 8.58433 144.538 9.55513 145.354 10.7344V7.42454H147.634ZM138.362 9.19847C137.101 9.18911 135.86 9.52116 134.771 10.1594C133.683 10.7977 132.787 11.7185 132.18 12.8242C131.543 13.9319 131.207 15.1873 131.207 16.4651C131.207 17.7429 131.543 18.9983 132.18 20.106C132.794 21.2267 133.7 22.1609 134.801 22.8102C135.871 23.4557 137.096 23.7968 138.345 23.7966C139.611 23.7973 140.855 23.4662 141.953 22.8361C143.053 22.2328 143.961 21.3334 144.575 20.2401C145.197 19.1105 145.513 17.8385 145.493 16.5495C145.519 15.5838 145.35 14.6228 144.996 13.724C144.642 12.8252 144.111 12.007 143.433 11.3185C142.779 10.6357 141.99 10.0962 141.116 9.73419C140.243 9.37222 139.303 9.19568 138.358 9.21577" fill="#00FFA7"/>
<path d="M152.982 -9.71363e-06C153.234 -0.00416672 153.485 0.0436234 153.718 0.140388C153.951 0.237152 154.161 0.380821 154.336 0.562456C154.517 0.739026 154.66 0.950586 154.756 1.18419C154.852 1.41779 154.899 1.66852 154.895 1.92103C154.897 2.17109 154.848 2.41902 154.752 2.64964C154.655 2.88025 154.512 3.08872 154.332 3.26229C154.157 3.44393 153.946 3.5876 153.713 3.68436C153.48 3.78113 153.23 3.82892 152.978 3.82476C152.728 3.82783 152.481 3.77947 152.251 3.6827C152.021 3.58593 151.813 3.44282 151.641 3.26229C151.461 3.08872 151.318 2.88025 151.221 2.64964C151.125 2.41902 151.076 2.17109 151.078 1.92103C151.075 1.66821 151.123 1.41729 151.219 1.18367C151.316 0.950052 151.46 0.738657 151.641 0.562456C151.814 0.381601 152.022 0.238319 152.253 0.141547C152.484 0.0447741 152.732 -0.00341315 152.982 -9.71363e-06V-9.71363e-06ZM151.831 7.42454H154.15V25.4538H151.831V7.42454Z" fill="#00FFA7"/>
<path d="M48.7788 19.47L50.7345 20.4997C50.1781 21.6328 49.4251 22.6583 48.5106 23.5284C47.6854 24.292 46.7221 24.8912 45.6723 25.2937C44.5312 25.7129 43.3226 25.9182 42.1071 25.8994C39.165 25.8994 36.8646 24.936 35.2061 23.0092C33.5969 21.2126 32.7106 18.8835 32.7182 16.4716C32.7017 14.2608 33.4456 12.1115 34.8253 10.384C35.6554 9.28368 36.7373 8.3986 37.9803 7.80308C39.2233 7.20757 40.591 6.91899 41.9686 6.9616C43.3844 6.9166 44.7905 7.21036 46.0699 7.81843C47.3492 8.4265 48.4649 9.3313 49.324 10.4575C50.6277 12.1046 51.2912 14.1597 51.3142 16.623H35.1065C35.0811 18.535 35.8011 20.3817 37.1141 21.7718C37.7269 22.426 38.4703 22.9444 39.2961 23.2932C40.1219 23.642 41.0118 23.8135 41.9081 23.7966C42.8222 23.7966 43.7291 23.634 44.5863 23.3164C45.396 23.0309 46.1468 22.5998 46.8015 22.0443C47.5864 21.2906 48.253 20.4227 48.7788 19.47V19.47ZM48.7788 14.6155C48.5447 13.5407 48.0829 12.5286 47.4246 11.6474C46.7915 10.8756 45.9871 10.2622 45.0752 9.85613C44.1151 9.40663 43.0676 9.17468 42.0076 9.17685C40.3246 9.14364 38.6922 9.75327 37.4429 10.8816C36.5142 11.7036 35.8132 12.9483 35.3402 14.6155H48.7788Z" fill="white"/>
<path d="M64.0346 9.39752L62.5419 10.9378C61.3016 9.735 60.0887 9.13215 58.9032 9.12927C58.1861 9.11538 57.492 9.38246 56.9692 9.87345C56.7191 10.0876 56.5178 10.3529 56.379 10.6514C56.2401 10.95 56.167 11.2749 56.1644 11.6041C56.1783 12.2234 56.4131 12.8172 56.8264 13.2785C57.2706 13.8208 58.2008 14.4554 59.6171 15.1823C61.3478 16.0764 62.5217 16.9418 63.139 17.7783C63.7416 18.5994 64.0619 19.5937 64.0519 20.6122C64.0644 21.3127 63.9322 22.0082 63.6634 22.6552C63.3946 23.3022 62.9952 23.8867 62.49 24.3721C61.9787 24.8786 61.37 25.2763 60.7007 25.541C60.0315 25.8057 59.3155 25.9321 58.596 25.9124C57.5651 25.9142 56.5473 25.6819 55.6193 25.2331C54.7008 24.8023 53.8962 24.1621 53.2699 23.364L54.728 21.7069C55.9135 23.0453 57.1696 23.713 58.4965 23.7101C59.3743 23.7298 60.2256 23.4088 60.8718 22.8145C61.1808 22.5582 61.4302 22.2378 61.6028 21.8754C61.7754 21.513 61.867 21.1174 61.8713 20.7161C61.876 20.0658 61.6455 19.4358 61.2223 18.9421C60.7896 18.4287 59.8104 17.7884 58.2845 17.0211C56.6577 16.1817 55.55 15.3524 54.9616 14.5333C54.3811 13.7168 54.0778 12.7356 54.0963 11.7339C54.0789 11.0986 54.1947 10.4667 54.4361 9.87876C54.6775 9.29084 55.0393 8.75994 55.4981 8.32018C55.9684 7.86898 56.5242 7.51636 57.1327 7.28305C57.7412 7.04974 58.3903 6.94045 59.0417 6.96161C60.7031 6.96161 62.3746 7.77358 64.0563 9.39752" fill="white"/>
<path d="M67.1758 7.42455H69.4949V15.8442C69.4949 17.9008 69.6059 19.3157 69.828 20.0887C70.1338 21.1573 70.8063 22.0841 71.7274 22.7063C72.7169 23.3629 73.8848 23.6983 75.0719 23.6668C76.2403 23.7036 77.3912 23.3755 78.3645 22.728C79.2425 22.1364 79.8998 21.2707 80.2336 20.2661C80.4673 19.5709 80.5841 18.0955 80.5841 15.8399V7.42455H82.9551V16.2726C82.9551 18.759 82.6667 20.6338 82.0898 21.8972C81.5374 23.1263 80.6245 24.1584 79.4721 24.8567C78.1384 25.6121 76.621 25.9821 75.0892 25.9254C73.5521 25.9805 72.0296 25.6107 70.689 24.8567C69.5247 24.158 68.6045 23.1169 68.0541 21.8756C67.4772 20.5978 67.1887 18.6782 67.1887 16.1168L67.1758 7.42455Z" fill="white"/>
<path d="M87.4289 7.42454H89.7479V10.6566C90.5625 9.51936 91.6134 8.5718 92.8285 7.87884C93.9569 7.26641 95.2224 6.95078 96.5062 6.96158C97.7771 6.93931 99.0259 7.29631 100.093 7.987C101.124 8.65711 101.929 9.62201 102.403 10.7561C102.9 11.9098 103.148 13.7155 103.148 16.1731V25.4537H100.829V16.874C100.879 15.4828 100.792 14.0901 100.569 12.716C100.383 11.6657 99.8346 10.7136 99.02 10.0249C98.1672 9.38154 97.1195 9.05014 96.0519 9.08598C94.6672 9.07873 93.3267 9.5737 92.279 10.4792C91.1932 11.3666 90.4225 12.5804 90.0811 13.9405C89.859 14.8347 89.7479 16.4701 89.7479 18.8469V25.4537H87.4289V7.42454Z" fill="white"/>
<path d="M125.443 0.462952V25.4538H123.154V22.3559C122.267 23.4694 121.152 24.3798 119.883 25.0254C118.156 25.8514 116.212 26.1141 114.327 25.7764C112.443 25.4387 110.711 24.5177 109.378 23.1433C108.496 22.2572 107.802 21.2025 107.336 20.042C106.871 18.8816 106.644 17.6394 106.669 16.3894C106.65 15.1515 106.883 13.9225 107.353 12.7771C107.823 11.6317 108.521 10.5938 109.404 9.72634C110.251 8.83633 111.273 8.13094 112.405 7.65443C113.538 7.17793 114.756 6.94058 115.985 6.95727C117.382 6.93682 118.762 7.26076 120.004 7.90049C121.265 8.58421 122.347 9.55504 123.163 10.7345V0.462952H125.443ZM116.171 9.19849C114.909 9.18913 113.668 9.52118 112.58 10.1595C111.491 10.7977 110.596 11.7185 109.988 12.8242C109.351 13.9321 109.016 15.1874 109.016 16.4651C109.016 17.7428 109.351 18.9982 109.988 20.106C110.603 21.2268 111.509 22.1609 112.61 22.8102C113.679 23.4557 114.905 23.7969 116.154 23.7966C117.42 23.7974 118.664 23.4662 119.762 22.8361C120.861 22.2326 121.77 21.3333 122.384 20.2401C123.011 19.1062 123.33 17.8278 123.31 16.5322C123.336 15.5665 123.168 14.6054 122.814 13.7066C122.46 12.8077 121.928 11.9896 121.25 11.3012C120.596 10.6184 119.807 10.0789 118.934 9.7169C118.06 9.35493 117.121 9.17839 116.175 9.19849" fill="white"/>
<path fill-rule="evenodd" clip-rule="evenodd" d="M36.7766 34.7258C36.4912 34.7242 36.2107 34.7997 35.9647 34.9444C35.7187 35.0891 35.5163 35.2976 35.3791 35.5479C35.2348 35.7986 35.1589 36.0828 35.1589 36.3721C35.1589 36.6614 35.2348 36.9456 35.3791 37.1963C35.5178 37.4507 35.7226 37.663 35.9719 37.8107C36.2137 37.9555 36.4904 38.0318 36.7723 38.0314C37.0591 38.0318 37.341 37.9572 37.59 37.815C37.8396 37.673 38.0437 37.4629 38.1785 37.2093C38.3194 36.9539 38.391 36.666 38.3861 36.3743C38.3923 36.1553 38.3541 35.9375 38.2738 35.7337C38.1934 35.53 38.0727 35.3446 37.9189 35.1888C37.7704 35.0373 37.5924 34.9181 37.3959 34.8384C37.1994 34.7588 36.9886 34.7204 36.7766 34.7258ZM38.875 34.3234V38.3991H38.3559V37.7025C38.1549 37.9535 37.9027 38.1585 37.616 38.3039C37.2246 38.4897 36.7848 38.5478 36.3586 38.4702C35.9324 38.3926 35.5414 38.1831 35.2407 37.8713C35.0386 37.6721 34.8789 37.4341 34.7711 37.1716C34.6633 36.9092 34.6096 36.6277 34.6133 36.344C34.6092 36.0642 34.6619 35.7865 34.7683 35.5277C34.8746 35.2689 35.0324 35.0344 35.232 34.8383C35.4234 34.6368 35.6545 34.477 35.9106 34.3691C36.1668 34.2611 36.4424 34.2073 36.7204 34.2109C37.036 34.206 37.3481 34.2788 37.629 34.4229C37.9137 34.5776 38.1582 34.7969 38.3429 35.0633V34.3234H38.875Z" fill="#CCCCCC"/>
<path fill-rule="evenodd" clip-rule="evenodd" d="M39.8269 34.3234H40.3504V36.2271C40.3363 36.5565 40.3625 36.8863 40.4283 37.2093C40.498 37.4517 40.6513 37.6617 40.861 37.802C41.0849 37.9508 41.3494 38.0264 41.6181 38.0184C41.882 38.025 42.1416 37.951 42.3623 37.8064C42.5649 37.674 42.7173 37.4774 42.795 37.2482C42.8634 36.9197 42.8895 36.5839 42.8729 36.2488V34.345H43.4094V36.3439C43.4322 36.7768 43.366 37.2098 43.2147 37.616C43.0894 37.8943 42.8828 38.1281 42.6219 38.2866C42.3204 38.4572 41.9774 38.5411 41.6311 38.5289C41.2835 38.5408 40.9393 38.457 40.636 38.2866C40.3724 38.1283 40.1639 37.8926 40.0389 37.6117C39.888 37.1963 39.8218 36.755 39.8442 36.3137L39.8269 34.3234Z" fill="#CCCCCC"/>
<path fill-rule="evenodd" clip-rule="evenodd" d="M44.8632 32.8091H45.391V34.3234H46.2217V34.7777H45.391V38.4034H44.8632V34.7777H44.1493V34.3234H44.8632V32.8091Z" fill="#CCCCCC"/>
<path fill-rule="evenodd" clip-rule="evenodd" d="M48.7831 34.7344C48.5722 34.7324 48.3632 34.7745 48.1695 34.8579C47.9758 34.9414 47.8016 35.0644 47.6582 35.219C47.5055 35.3723 47.385 35.5547 47.304 35.7553C47.223 35.956 47.1831 36.1709 47.1866 36.3872C47.1854 36.6768 47.26 36.9617 47.4029 37.2136C47.5383 37.4594 47.7389 37.6631 47.9827 37.802C48.2275 37.938 48.503 38.0094 48.7831 38.0094C49.0632 38.0094 49.3387 37.938 49.5835 37.802C49.8279 37.6619 50.0286 37.4567 50.1633 37.2093C50.3064 36.9575 50.381 36.6725 50.3797 36.3829C50.3834 36.1665 50.3436 35.9516 50.2626 35.7509C50.1815 35.5502 50.061 35.3678 49.908 35.2147C49.7646 35.06 49.5905 34.937 49.3968 34.8536C49.203 34.7701 48.994 34.7281 48.7831 34.7301V34.7344ZM48.7831 34.2152C49.0776 34.2082 49.37 34.2657 49.6399 34.3838C49.9097 34.5019 50.1504 34.6777 50.345 34.8989C50.7137 35.307 50.9153 35.8389 50.9097 36.3888C50.9041 36.9388 50.6917 37.4664 50.3148 37.8669C50.1138 38.0684 49.8751 38.2282 49.6123 38.3373C49.3494 38.4464 49.0677 38.5025 48.7831 38.5025C48.4986 38.5025 48.2168 38.4464 47.954 38.3373C47.6912 38.2282 47.4524 38.0684 47.2515 37.8669C46.8701 37.4696 46.6547 36.9418 46.649 36.3911C46.6434 35.8404 46.848 35.3082 47.2212 34.9032C47.4159 34.6807 47.6571 34.5037 47.9277 34.3849C48.1984 34.266 48.4919 34.2081 48.7874 34.2152" fill="#CCCCCC"/>
<path fill-rule="evenodd" clip-rule="evenodd" d="M53.8626 38.0011C54.1481 38.0032 54.4288 37.9278 54.6749 37.7831C54.921 37.6383 55.1233 37.4295 55.2601 37.179C55.4039 36.9273 55.4796 36.6425 55.4796 36.3526C55.4796 36.0627 55.4039 35.7779 55.2601 35.5262C55.1218 35.2715 54.9169 35.0592 54.6674 34.9118C54.4271 34.7669 54.1518 34.6906 53.8713 34.6912C53.584 34.6912 53.3019 34.7674 53.0535 34.9118C52.8048 35.0487 52.5995 35.2526 52.4608 35.5002C52.3202 35.7558 52.2486 36.0436 52.2531 36.3353C52.2466 36.5539 52.2843 36.7715 52.3638 36.9752C52.4434 37.1789 52.5632 37.3644 52.7161 37.5208C52.8637 37.6753 53.0419 37.7975 53.2393 37.8794C53.4367 37.9613 53.6489 38.0013 53.8626 37.9967V38.0011ZM51.7642 38.3991V32.7485H52.2877V35.0459C52.486 34.793 52.737 34.5863 53.0233 34.4402C53.414 34.2548 53.853 34.1968 54.2785 34.2745C54.7039 34.3521 55.0942 34.5614 55.3943 34.8729C55.5928 35.0729 55.7492 35.3108 55.854 35.5724C55.9588 35.834 56.0099 36.1141 56.0043 36.3959C56.0047 36.6723 55.9498 36.946 55.8428 37.2008C55.7358 37.4557 55.5789 37.6866 55.3813 37.8799C55.1913 38.0798 54.9624 38.2386 54.7086 38.3465C54.4549 38.4545 54.1816 38.5092 53.9059 38.5073C53.5916 38.5123 53.2809 38.4395 53.0016 38.2953C52.7161 38.136 52.4717 37.9123 52.2877 37.6419V38.3905L51.7642 38.3991Z" fill="#CCCCCC"/>
<path fill-rule="evenodd" clip-rule="evenodd" d="M58.7777 34.7258C58.4923 34.7242 58.2118 34.7997 57.9658 34.9444C57.7198 35.0891 57.5175 35.2976 57.3802 35.5478C57.236 35.7986 57.16 36.0828 57.16 36.3721C57.16 36.6614 57.236 36.9456 57.3802 37.1963C57.5207 37.4497 57.727 37.6605 57.9773 37.8064C58.2191 37.9512 58.4958 38.0275 58.7777 38.027C59.0645 38.0275 59.3464 37.9529 59.5955 37.8107C59.8429 37.6692 60.0453 37.4607 60.1796 37.2093C60.3205 36.9539 60.3922 36.666 60.3873 36.3742C60.3934 36.1553 60.3552 35.9374 60.2749 35.7337C60.1946 35.53 60.0738 35.3446 59.92 35.1887C59.7722 35.0344 59.594 34.9124 59.3966 34.8305C59.1992 34.7486 58.987 34.7085 58.7734 34.7128L58.7777 34.7258ZM60.8718 34.3104V38.3861H60.3526V37.7025C60.1517 37.9535 59.8995 38.1585 59.6128 38.3039C59.2214 38.4897 58.7816 38.5478 58.3554 38.4702C57.9292 38.3926 57.5382 38.1831 57.2374 37.8713C57.0385 37.6706 56.882 37.432 56.7772 37.1696C56.6724 36.9072 56.6215 36.6264 56.6274 36.344C56.6233 36.0642 56.676 35.7865 56.7824 35.5277C56.8887 35.2689 57.0465 35.0343 57.2461 34.8383C57.4375 34.6368 57.6686 34.477 57.9247 34.369C58.1808 34.2611 58.4565 34.2072 58.7345 34.2109C59.0501 34.206 59.3622 34.2788 59.6431 34.4229C59.9278 34.5776 60.1723 34.7969 60.357 35.0633V34.3234L60.8718 34.3104Z" fill="#CCCCCC"/>
<path fill-rule="evenodd" clip-rule="evenodd" d="M61.9015 32.7485H62.4251V35.0459C62.6115 34.7894 62.8504 34.5756 63.126 34.4186C63.3794 34.2803 63.6638 34.2089 63.9524 34.2109C64.2407 34.2061 64.5239 34.2875 64.7658 34.4445C64.9986 34.5953 65.1809 34.8123 65.2893 35.0676C65.4227 35.4628 65.4799 35.8798 65.4581 36.2964V38.3948H64.9345V36.4478C64.9454 36.1337 64.9265 35.8194 64.8783 35.5089C64.8328 35.2711 64.7077 35.0559 64.5235 34.8988C64.33 34.756 64.0931 34.6842 63.8529 34.6955C63.5355 34.6914 63.2277 34.8038 62.9875 35.0113C62.7426 35.2109 62.5681 35.4839 62.49 35.7901C62.4272 36.1558 62.4025 36.527 62.4164 36.8978V38.3948H61.8929L61.9015 32.7485Z" fill="#CCCCCC"/>
<path fill-rule="evenodd" clip-rule="evenodd" d="M66.4273 34.3234H66.9508V35.0459C67.1351 34.7891 67.3727 34.575 67.6474 34.4186C67.9021 34.2798 68.188 34.2083 68.4781 34.2109C68.7665 34.2058 69.0498 34.2872 69.2915 34.4445C69.5255 34.5958 69.7081 34.8146 69.815 35.0719C69.948 35.4657 70.0052 35.8812 69.9838 36.2963V38.3948H69.4603V36.4478C69.4711 36.1336 69.4508 35.8191 69.3997 35.5089C69.3578 35.2708 69.2338 35.055 69.0492 34.8988C68.8542 34.7557 68.6159 34.6839 68.3743 34.6955C68.0569 34.6914 67.7491 34.8038 67.5089 35.0113C67.264 35.2109 67.0895 35.4839 67.0114 35.7901C66.9489 36.1558 66.9242 36.527 66.9378 36.8977V38.3948H66.4143L66.4273 34.3234Z" fill="#CCCCCC"/>
<path fill-rule="evenodd" clip-rule="evenodd" d="M73.3845 32.8091H73.908V34.3234H74.7431V34.7777H73.908V38.4034H73.3845V34.7777H72.6706V34.3234H73.3845V32.8091Z" fill="#CCCCCC"/>
<path fill-rule="evenodd" clip-rule="evenodd" d="M77.3045 34.7344C77.0935 34.7324 76.8845 34.7745 76.6908 34.8579C76.4971 34.9414 76.323 35.0644 76.1795 35.219C76.0284 35.373 75.9095 35.5557 75.83 35.7564C75.7505 35.957 75.7119 36.1715 75.7166 36.3872C75.7154 36.6768 75.79 36.9617 75.9329 37.2136C76.0683 37.4594 76.2689 37.6631 76.5127 37.802C76.7575 37.938 77.033 38.0094 77.3131 38.0094C77.5932 38.0094 77.8687 37.938 78.1135 37.802C78.3547 37.6606 78.5523 37.4555 78.6847 37.2093C78.8278 36.9575 78.9024 36.6725 78.901 36.3829C78.9047 36.1665 78.8649 35.9516 78.7839 35.7509C78.7029 35.5502 78.5823 35.3678 78.4294 35.2147C78.286 35.06 78.1118 34.937 77.9181 34.8536C77.7244 34.7701 77.5154 34.7281 77.3045 34.7301V34.7344ZM77.3045 34.2152C77.5989 34.2082 77.8914 34.2657 78.1612 34.3838C78.4311 34.5019 78.6718 34.6777 78.8664 34.8989C79.2351 35.307 79.4367 35.8389 79.431 36.3888C79.4254 36.9388 79.213 37.4664 78.8361 37.8669C78.6352 38.0684 78.3964 38.2282 78.1336 38.3373C77.8708 38.4464 77.589 38.5025 77.3045 38.5025C77.0199 38.5025 76.7382 38.4464 76.4753 38.3373C76.2125 38.2282 75.9738 38.0684 75.7728 37.8669C75.3915 37.4696 75.176 36.9418 75.1704 36.3911C75.1648 35.8404 75.3694 35.3082 75.7425 34.9032C75.9372 34.6807 76.1784 34.5037 76.4491 34.3849C76.7198 34.266 77.0132 34.2081 77.3088 34.2152" fill="#CCCCCC"/>
<path fill-rule="evenodd" clip-rule="evenodd" d="M86.1785 35.1714L85.7458 35.431C85.5784 35.2 85.3565 35.0139 85.0999 34.8894C84.8432 34.7648 84.5598 34.7057 84.2747 34.7171C83.8268 34.7116 83.3947 34.8825 83.0719 35.1931C82.9116 35.339 82.7834 35.5166 82.6955 35.7148C82.6076 35.9129 82.5619 36.1272 82.5614 36.3439C82.5601 36.6388 82.6378 36.9286 82.7863 37.1833C82.9327 37.4411 83.1486 37.6525 83.4094 37.7934C83.6753 37.9366 83.9727 38.011 84.2747 38.0097C84.5583 38.0153 84.8391 37.9535 85.0941 37.8294C85.3491 37.7053 85.571 37.5224 85.7415 37.2958L86.1741 37.5684C85.9794 37.8626 85.7088 38.0988 85.391 38.252C85.0399 38.419 84.6548 38.5019 84.2661 38.4943C83.9711 38.504 83.6771 38.4546 83.4015 38.3491C83.1258 38.2436 82.874 38.0841 82.6609 37.8799C82.4559 37.6889 82.2933 37.4569 82.1837 37.199C82.0741 36.9411 82.02 36.6631 82.0249 36.3829C82.0229 35.9963 82.1261 35.6164 82.3234 35.2839C82.5176 34.9496 82.8007 34.6755 83.1411 34.4921C83.4985 34.2994 83.8991 34.2011 84.305 34.2066C84.5711 34.2063 84.8355 34.2486 85.0881 34.332C85.3179 34.4025 85.5343 34.5107 85.7285 34.6522C85.9035 34.792 86.0504 34.9638 86.1612 35.1584" fill="#CCCCCC"/>
<path d="M87.4764 32.7485H86.9529V38.3991H87.4764V32.7485Z" fill="#CCCCCC"/>
<path fill-rule="evenodd" clip-rule="evenodd" d="M88.3374 38.4034H88.861V34.3234H88.3374V38.4034ZM88.597 32.6446C88.6826 32.6446 88.7663 32.67 88.8374 32.7176C88.9086 32.7651 88.964 32.8327 88.9968 32.9117C89.0295 32.9908 89.0381 33.0778 89.0214 33.1617C89.0047 33.2456 88.9635 33.3227 88.903 33.3833C88.8425 33.4438 88.7654 33.485 88.6814 33.5017C88.5975 33.5184 88.5105 33.5098 88.4314 33.477C88.3524 33.4443 88.2848 33.3888 88.2373 33.3177C88.1897 33.2465 88.1643 33.1629 88.1643 33.0773C88.164 33.0204 88.1749 32.9639 88.1965 32.9112C88.218 32.8585 88.2497 32.8105 88.2898 32.7701C88.3697 32.6886 88.4786 32.6419 88.5927 32.6403" fill="#CCCCCC"/>
<path fill-rule="evenodd" clip-rule="evenodd" d="M89.7955 34.3233H90.319V35.0459C90.5033 34.789 90.7409 34.575 91.0156 34.4185C91.2703 34.2798 91.5563 34.2083 91.8463 34.2109C92.1347 34.2058 92.418 34.2872 92.6597 34.4445C92.8937 34.5958 93.0763 34.8145 93.1833 35.0719C93.3162 35.4657 93.3734 35.8812 93.352 36.2963V38.3947H92.8285V36.4477C92.8393 36.1335 92.8191 35.819 92.7679 35.5089C92.726 35.2708 92.602 35.0549 92.4174 34.8988C92.2224 34.7557 91.9841 34.6839 91.7425 34.6954C91.4251 34.6914 91.1173 34.8037 90.8771 35.0113C90.6319 35.2107 90.4575 35.4838 90.3796 35.7901C90.3171 36.1558 90.2925 36.527 90.306 36.8977V38.3947H89.7825L89.7955 34.3233Z" fill="#CCCCCC"/>
<path fill-rule="evenodd" clip-rule="evenodd" d="M94.2478 38.4034H94.754V34.3234H94.2304L94.2478 38.4034ZM94.5074 32.6446C94.6075 32.6432 94.7051 32.6766 94.7834 32.7391C94.8617 32.8015 94.9159 32.8893 94.9367 32.9872C94.9576 33.0852 94.9438 33.1874 94.8977 33.2764C94.8516 33.3653 94.776 33.4355 94.684 33.4749C94.5919 33.5144 94.489 33.5207 94.3928 33.4927C94.2966 33.4648 94.2131 33.4043 94.1565 33.3216C94.0999 33.239 94.0737 33.1392 94.0825 33.0394C94.0913 32.9396 94.1344 32.846 94.2045 32.7744C94.2844 32.6929 94.3932 32.6463 94.5074 32.6446" fill="#CCCCCC"/>
<path fill-rule="evenodd" clip-rule="evenodd" d="M99.6648 35.1714L99.2321 35.431C99.0647 35.2 98.8428 35.014 98.5862 34.8894C98.3295 34.7649 98.0461 34.7057 97.761 34.7171C97.5331 34.7104 97.3062 34.7494 97.0937 34.8319C96.8811 34.9144 96.6873 35.0387 96.5236 35.1974C96.3709 35.3462 96.2503 35.5247 96.1692 35.7219C96.0881 35.9191 96.0482 36.1308 96.052 36.344C96.0508 36.6388 96.1285 36.9286 96.277 37.1833C96.4264 37.448 96.6487 37.6643 96.9173 37.8064C97.1832 37.9496 97.4807 38.024 97.7827 38.0227C98.0662 38.0283 98.347 37.9665 98.602 37.8424C98.857 37.7183 99.0789 37.5354 99.2494 37.3088L99.6821 37.5814C99.4873 37.8756 99.2168 38.1118 98.8989 38.265C98.5478 38.432 98.1627 38.5149 97.774 38.5073C97.479 38.517 97.1851 38.4676 96.9094 38.3621C96.6337 38.2566 96.382 38.0971 96.1688 37.8929C95.9638 37.7019 95.8012 37.4699 95.6917 37.212C95.5821 36.9541 95.528 36.6761 95.5328 36.3959C95.5309 36.0093 95.6341 35.6294 95.8313 35.2969C96.0256 34.9626 96.3086 34.6885 96.6491 34.5051C97.0064 34.3124 97.407 34.2141 97.813 34.2196C98.079 34.2193 98.3434 34.2616 98.5961 34.3451C98.8258 34.4155 99.0422 34.5237 99.2364 34.6652C99.4115 34.805 99.5583 34.9768 99.6691 35.1714" fill="#CCCCCC"/>
<path fill-rule="evenodd" clip-rule="evenodd" d="M102.486 34.7258C102.2 34.7242 101.92 34.7997 101.674 34.9444C101.428 35.0891 101.225 35.2976 101.088 35.5479C100.944 35.7986 100.868 36.0828 100.868 36.3721C100.868 36.6614 100.944 36.9456 101.088 37.1963C101.226 37.4486 101.43 37.6593 101.677 37.8064C101.918 37.9512 102.195 38.0275 102.477 38.027C102.764 38.0275 103.046 37.9529 103.295 37.8107C103.547 37.6711 103.754 37.4625 103.892 37.2093C104.033 36.9539 104.104 36.666 104.1 36.3743C104.106 36.1553 104.068 35.9375 103.987 35.7337C103.907 35.53 103.786 35.3446 103.632 35.1888C103.485 35.0344 103.306 34.9124 103.109 34.8305C102.912 34.7486 102.699 34.7085 102.486 34.7128V34.7258ZM104.584 34.3104V38.3862H104.065V37.7025C103.864 37.9534 103.612 38.1584 103.325 38.3039C102.934 38.4897 102.494 38.5478 102.068 38.4702C101.642 38.3926 101.251 38.1831 100.95 37.8713C100.75 37.671 100.593 37.4325 100.487 37.1701C100.382 36.9077 100.33 36.6268 100.335 36.344C100.331 36.0642 100.384 35.7865 100.49 35.5277C100.597 35.2689 100.754 35.0344 100.954 34.8383C101.146 34.6368 101.377 34.477 101.633 34.3691C101.889 34.2611 102.165 34.2073 102.442 34.2109C102.758 34.206 103.07 34.2788 103.351 34.4229C103.636 34.5776 103.88 34.7969 104.065 35.0633V34.3234L104.584 34.3104Z" fill="#CCCCCC"/>
<path d="M106.055 32.7485H105.532V38.3991H106.055V32.7485Z" fill="#CCCCCC"/>
<path d="M108.712 36.1017H106.652V36.5603H108.712V36.1017Z" fill="#CCCCCC"/>
<path fill-rule="evenodd" clip-rule="evenodd" d="M111.355 34.7258C111.066 34.7246 110.781 34.7992 110.529 34.9421C110.277 35.0823 110.069 35.2888 109.927 35.5392C109.784 35.7893 109.709 36.0729 109.711 36.3612C109.703 36.5657 109.737 36.7697 109.812 36.9603C109.886 37.1509 109.999 37.324 110.144 37.4689C110.467 37.7495 110.88 37.904 111.308 37.904C111.735 37.904 112.149 37.7495 112.471 37.4689C112.62 37.322 112.736 37.1466 112.814 36.9531C112.893 36.7597 112.93 36.5525 112.926 36.3439C112.93 36.0569 112.86 35.7736 112.722 35.5219C112.588 35.2816 112.388 35.0838 112.147 34.9507C111.903 34.8109 111.627 34.7378 111.347 34.7387L111.355 34.7258ZM112.895 34.3364H113.419V37.5857C113.438 38.0094 113.387 38.4334 113.268 38.8404C113.139 39.2042 112.886 39.5108 112.554 39.7057C112.181 39.9164 111.757 40.0212 111.329 40.0086C111.009 40.0138 110.69 39.964 110.386 39.8615C110.134 39.7781 109.903 39.6424 109.707 39.4634C109.501 39.2519 109.337 39.0039 109.222 38.7322H109.793C109.932 38.9865 110.14 39.1953 110.395 39.3337C110.678 39.4725 110.992 39.5393 111.308 39.5283C111.621 39.5383 111.932 39.4699 112.212 39.3293C112.435 39.2194 112.619 39.0444 112.74 38.8274C112.866 38.5176 112.92 38.1834 112.9 37.8496V37.6419C112.708 37.8881 112.46 38.0853 112.177 38.2174C111.867 38.3604 111.527 38.428 111.186 38.4144C110.844 38.4009 110.511 38.3067 110.213 38.1395C109.897 37.9564 109.638 37.6899 109.464 37.3693C109.285 37.0531 109.192 36.6947 109.196 36.331C109.197 35.7717 109.419 35.2355 109.814 34.8392C110.209 34.4429 110.744 34.2186 111.303 34.2152C111.602 34.2118 111.898 34.2769 112.169 34.4056C112.456 34.5657 112.706 34.7837 112.904 35.0459L112.895 34.3364Z" fill="#CCCCCC"/>
<path fill-rule="evenodd" clip-rule="evenodd" d="M114.202 34.3234H114.739V34.9205C114.872 34.7132 115.044 34.5339 115.245 34.3926C115.409 34.2817 115.601 34.2215 115.799 34.2195C115.963 34.2253 116.122 34.273 116.262 34.358L115.989 34.7907C115.903 34.7482 115.809 34.7232 115.712 34.7171C115.523 34.7236 115.342 34.8007 115.206 34.9334C115.021 35.1157 114.892 35.3468 114.834 35.5998C114.749 36.0648 114.716 36.5379 114.735 37.0102V38.3904H114.198L114.202 34.3234Z" fill="#CCCCCC"/>
<path fill-rule="evenodd" clip-rule="evenodd" d="M118.52 34.7258C118.235 34.7242 117.954 34.7997 117.708 34.9444C117.462 35.0891 117.26 35.2976 117.123 35.5479C116.979 35.7986 116.903 36.0828 116.903 36.3721C116.903 36.6614 116.979 36.9456 117.123 37.1963C117.261 37.4507 117.466 37.663 117.716 37.8107C117.957 37.9555 118.234 38.0318 118.516 38.0314C118.803 38.0318 119.085 37.9572 119.334 37.815C119.585 37.6737 119.791 37.4635 119.926 37.2093C120.067 36.9539 120.139 36.666 120.134 36.3743C120.14 36.1553 120.102 35.9375 120.022 35.7337C119.941 35.53 119.821 35.3446 119.667 35.1888C119.519 35.0344 119.341 34.9124 119.144 34.8305C118.946 34.7486 118.734 34.7085 118.52 34.7128V34.7258ZM120.619 34.3104V38.3862H120.1V37.7025C119.899 37.9535 119.646 38.1585 119.36 38.3039C118.968 38.4897 118.529 38.5478 118.102 38.4702C117.676 38.3926 117.285 38.1831 116.984 37.8713C116.788 37.6695 116.634 37.4304 116.531 37.1681C116.429 36.9058 116.38 36.6255 116.387 36.344C116.383 36.0642 116.436 35.7865 116.542 35.5277C116.649 35.2689 116.806 35.0344 117.006 34.8383C117.197 34.6368 117.428 34.477 117.685 34.3691C117.941 34.2611 118.216 34.2073 118.494 34.2109C118.81 34.206 119.122 34.2788 119.403 34.4229C119.688 34.5776 119.932 34.7969 120.117 35.0633V34.3234L120.619 34.3104Z" fill="#CCCCCC"/>
<path fill-rule="evenodd" clip-rule="evenodd" d="M123.617 34.7258C123.332 34.7242 123.051 34.7997 122.805 34.9444C122.559 35.0891 122.357 35.2976 122.22 35.5479C122.075 35.7986 121.999 36.0828 121.999 36.3721C121.999 36.6614 122.075 36.9456 122.22 37.1963C122.358 37.4507 122.563 37.663 122.812 37.8107C123.054 37.9555 123.331 38.0318 123.613 38.0314C123.9 38.0318 124.182 37.9572 124.431 37.815C124.688 37.6763 124.9 37.4659 125.041 37.2093C125.181 36.9538 125.253 36.6659 125.248 36.3743C125.254 36.1553 125.216 35.9375 125.136 35.7337C125.056 35.53 124.935 35.3446 124.781 35.1888C124.633 35.0344 124.455 34.9124 124.258 34.8305C124.06 34.7486 123.848 34.7085 123.634 34.7128L123.617 34.7258ZM125.733 32.7355V38.4035H125.214V37.7025C125.013 37.9535 124.761 38.1585 124.474 38.3039C124.082 38.4897 123.643 38.5478 123.216 38.4702C122.79 38.3926 122.399 38.1831 122.099 37.8713C121.896 37.6724 121.735 37.4346 121.627 37.1721C121.518 36.9097 121.464 36.628 121.467 36.344C121.463 36.0642 121.515 35.7865 121.622 35.5277C121.728 35.2689 121.886 35.0344 122.086 34.8383C122.277 34.6368 122.508 34.477 122.764 34.3691C123.02 34.2611 123.296 34.2073 123.574 34.2109C123.89 34.206 124.202 34.2788 124.482 34.4229C124.767 34.5776 125.012 34.7969 125.196 35.0633V32.7485L125.733 32.7355Z" fill="#CCCCCC"/>
<path fill-rule="evenodd" clip-rule="evenodd" d="M130.181 35.9502C130.128 35.7072 130.023 35.4784 129.874 35.2795C129.731 35.1041 129.548 34.9647 129.341 34.8728C129.125 34.772 128.888 34.7203 128.649 34.7214C128.269 34.7141 127.901 34.8518 127.619 35.1065C127.384 35.3367 127.218 35.6294 127.143 35.9502H130.181ZM130.181 37.0492L130.613 37.2828C130.488 37.5402 130.318 37.7732 130.111 37.9707C129.925 38.1428 129.708 38.2779 129.471 38.3688C129.214 38.4637 128.941 38.5107 128.666 38.5072C128.374 38.5226 128.081 38.4719 127.811 38.3588C127.54 38.2457 127.299 38.0731 127.104 37.8539C126.74 37.4472 126.54 36.92 126.542 36.3742C126.535 35.8714 126.703 35.3818 127.018 34.9897C127.206 34.7411 127.452 34.5414 127.733 34.4073C128.015 34.2733 128.324 34.2089 128.636 34.2195C128.957 34.2091 129.275 34.2755 129.565 34.4133C129.855 34.551 130.107 34.7561 130.302 35.0113C130.6 35.4132 130.752 35.9045 130.735 36.4045H127.066C127.053 36.8338 127.209 37.2511 127.498 37.5684C127.639 37.7119 127.809 37.8245 127.996 37.899C128.183 37.9735 128.383 38.0083 128.584 38.001C128.791 38.0014 128.996 37.9648 129.19 37.8929C129.373 37.829 129.543 37.7322 129.692 37.6073C129.864 37.4364 130.01 37.241 130.124 37.0275" fill="#CCCCCC"/>
<path fill-rule="evenodd" clip-rule="evenodd" d="M135.827 34.0595L134.884 36.0541H136.77L135.827 34.0595ZM135.896 32.887L138.453 38.4035H137.861L136.995 36.5906H134.62L133.755 38.4035H133.14L135.736 32.8913L135.896 32.887Z" fill="#CCCCCC"/>
<path d="M139.639 32.887H139.089V38.3991H139.639V32.887Z" fill="#CCCCCC"/>
</g>
<defs>
<clipPath id="clip0_6_70">
<rect width="154.895" height="40" fill="white"/>
</clipPath>
</defs>
</svg>
